<svg xmlns="http://www.w3.org/2000/svg" viewBox="0 0 100 100">
  <defs>
    <linearGradient id="grad" x1="0%" y1="0%" x2="100%" y2="100%">
      <stop offset="0%" style="stop-color:#14b8a6;stop-opacity:1" />
      <stop offset="100%" style="stop-color:#0d9488;stop-opacity:1" />
    </linearGradient>
  </defs>
  <rect width="100" height="100" rx="20" fill="url(#grad)"/>
  <path d="M50 20 C35 20 25 30 25 45 L25 70 C25 75 28 78 33 78 L67 78 C72 78 75 75 75 70 L75 45 C75 30 65 20 50 20 Z M50 30 C60 30 65 37 65 45 L65 55 L35 55 L35 45 C35 37 40 30 50 30 Z" fill="white"/>
  <circle cx="50" cy="68" r="5" fill="white" opacity="0.8"/>
</svg>
